<svg width="22" height="22" viewBox="0 0 22 22" fill="none" xmlns="http://www.w3.org/2000/svg">
<circle cx="11" cy="11" r="11" fill="#7589D0"/>
<path d="M10 7C10 6.44772 10.4477 6 11 6C11.5523 6 12 6.44772 12 7V15C12 15.5523 11.5523 16 11 16C10.4477 16 10 15.5523 10 15V7Z" fill="#DEE5FF"/>
<path d="M7.00366 12.0183C6.45138 12.0183 6.00366 11.5706 6.00366 11.0183C6.00366 10.466 6.45138 10.0183 7.00366 10.0183H15.0037C15.5559 10.0183 16.0037 10.466 16.0037 11.0183C16.0037 11.5706 15.5559 12.0183 15.0037 12.0183H7.00366Z" fill="#DEE5FF"/>
</svg>
