<svg width="47" height="48" viewBox="0 0 47 48" fill="none" xmlns="http://www.w3.org/2000/svg">
<g clip-path="url(#clip0_43_4)">
<path d="M23.25 0.75C10.4091 0.75 0 11.1591 0 24C0 36.8409 10.4091 47.25 23.25 47.25C36.0909 47.25 46.5 36.8409 46.5 24C46.5 11.1591 36.0909 0.75 23.25 0.75ZM30.9647 34.275C30.5991 34.6388 30.2156 35.0203 29.9044 35.3325C29.6241 35.6138 29.4262 35.9606 29.3259 36.3366C29.1844 36.8672 29.07 37.4034 28.8788 37.9181L27.2484 42.3103C25.9584 42.5916 24.6234 42.75 23.25 42.75V40.1831C23.4084 39 22.5337 36.7837 21.1284 35.3784C20.5659 34.8159 20.25 34.0528 20.25 33.2569V30.2559C20.25 29.1647 19.6622 28.1616 18.7069 27.6338C17.3597 26.8884 15.4434 25.8469 14.1309 25.1859C13.0547 24.6441 12.0591 23.9541 11.1638 23.1469L11.0887 23.0794C10.4485 22.5014 9.88004 21.8486 9.39563 21.135C8.51625 19.8441 7.08375 17.7206 6.15281 16.3406C8.07187 12.075 11.5303 8.64938 15.8278 6.78844L18.0787 7.91437C19.0762 8.41312 20.25 7.68844 20.25 6.57281V5.51344C20.9991 5.3925 21.7612 5.31562 22.5366 5.28656L25.1897 7.93969C25.7756 8.52563 25.7756 9.47531 25.1897 10.0612L24.75 10.5L23.7806 11.4694C23.4881 11.7619 23.4881 12.2372 23.7806 12.5297L24.2203 12.9694C24.5128 13.2619 24.5128 13.7372 24.2203 14.0297L23.4703 14.7797C23.3295 14.9202 23.1386 14.9991 22.9397 14.9991H22.0969C21.9019 14.9991 21.7144 15.075 21.5737 15.2119L20.6437 16.1166C20.5298 16.2276 20.454 16.3719 20.4273 16.5288C20.4007 16.6857 20.4246 16.847 20.4956 16.9894L21.9572 19.9134C22.2066 20.4122 21.8437 20.9991 21.2869 20.9991H20.7581C20.5772 20.9991 20.4028 20.9334 20.2669 20.8153L19.3969 20.0597C19.2 19.8889 18.9621 19.7723 18.7065 19.7213C18.4508 19.6704 18.1864 19.6868 17.9391 19.7691L15.0169 20.7431C14.7938 20.8175 14.5997 20.9602 14.4623 21.151C14.3248 21.3418 14.2509 21.5711 14.2509 21.8063C14.2509 22.2309 14.4909 22.6181 14.8706 22.8084L15.9094 23.3278C16.7916 23.7694 17.7647 23.9991 18.7509 23.9991C19.7372 23.9991 20.8687 26.5575 21.7509 26.9991H28.0088C28.8047 26.9991 29.5669 27.315 30.1303 27.8775L31.4137 29.1609C31.9499 29.6973 32.2511 30.4247 32.2509 31.1831C32.2507 31.7578 32.137 32.3268 31.9163 32.8574C31.6955 33.388 31.3722 33.8697 30.9647 34.275V34.275ZM39.0938 25.7109C38.5509 25.575 38.0775 25.2422 37.7672 24.7762L36.0816 22.2478C35.8349 21.8784 35.7033 21.4442 35.7033 21C35.7033 20.5558 35.8349 20.1216 36.0816 19.7522L37.9181 16.9978C38.1356 16.6725 38.4338 16.4081 38.7844 16.2338L40.0012 15.6253C41.2687 18.1491 42 20.9878 42 24C42 24.8128 41.9306 25.6088 41.8294 26.3944L39.0938 25.7109Z" fill="url(#paint0_linear_43_4)"/>
</g>
<defs>
<linearGradient id="paint0_linear_43_4" x1="23.25" y1="0.75" x2="23.25" y2="47.25" gradientUnits="userSpaceOnUse">
<stop stop-color="#BECBFA"/>
<stop offset="0.364583" stop-color="#B1C0F4"/>
<stop offset="1" stop-color="#9BACEB"/>
</linearGradient>
<clipPath id="clip0_43_4">
<rect width="46.5" height="48" fill="white"/>
</clipPath>
</defs>
</svg>
